<svg xmlns="http://www.w3.org/2000/svg" xmlns:xlink="http://www.w3.org/1999/xlink" version="1.1" x="0px" y="0px"
	 viewBox="0 0 20 20" style="enable-background:new 0 0 20 20;" xml:space="preserve">
<path d="M15,16c0-1.5,0.3-2.8,0.8-3.7c-2.5-1.1-4.4-3.5-4.7-6.3H18v11c0,0.6-0.4,1-1,1H3c-0.6,0-1-0.4-1-1V6h6.9
	c-0.4,2.8-2.2,5.2-4.7,6.3C4.7,13.2,5,14.5,5,16H15z M2,3v2h16V3c0-0.6-0.4-1-1-1H3C2.4,2,2,2.4,2,3z M9.7,10.2l-0.4,1.1
	c0,0.1-0.2,0.2-0.3,0.2H7.7c-0.3,0-0.5,0.4-0.2,0.6l1,0.7c0.1,0.1,0.2,0.3,0.1,0.4l-0.4,1.1c-0.1,0.3,0.3,0.6,0.5,0.4l1-0.7
	c0.1-0.1,0.3-0.1,0.4,0l1,0.7c0.3,0.2,0.7-0.1,0.5-0.4l-0.4-1.1c0-0.1,0-0.3,0.1-0.4l1-0.7c0.3-0.2,0.1-0.6-0.2-0.6h-1.2
	c-0.2,0-0.3-0.1-0.3-0.2l-0.4-1.1C10.2,9.9,9.8,9.9,9.7,10.2z"/>
</svg>
