<svg xmlns="http://www.w3.org/2000/svg" version="1.1" x="0" y="0" width="20" height="20" viewBox="0" enable-background="new 0 0 20 20" xml:space="preserve"><path fill-rule="evenodd" clip-rule="evenodd" fill="#010101" d="M9.9 2c-4.418 0-8 3.582-8 8s3.582 8 8 8 8-3.582 8-8S14.318 2 9.9 2zM7.44 14.919c-1.356-0.678-2.31-1.845-2.756-3.181l0.948-0.316c0.364 1.093 1.145 2.048 2.255 2.603L7.44 14.919zM9.9 12c-1.105 0-2-0.895-2-2 0-1.105 0.895-2 2-2s2 0.895 2 2C11.9 11.105 11.005 12 9.9 12zM14.167 8.578c-0.364-1.093-1.145-2.048-2.255-2.603l0.447-0.894c1.356 0.678 2.31 1.845 2.756 3.181L14.167 8.578z"/><circle fill-rule="evenodd" clip-rule="evenodd" fill="#010101" cx="9.9" cy="10" r="1"/></svg>